<?xml version="1.0" encoding="utf-8"?>
<svg version="1.1" id="图层_1" xmlns="http://www.w3.org/2000/svg" xmlns:xlink="http://www.w3.org/1999/xlink" x="0px" y="0px" viewBox="0 0 612 792" style="enable-background:new 0 0 612 792;" xml:space="preserve">
	<path id="circle" fill="#ccc" d="M441.16,380.35c-10.38,8.11-19.69,15.38-29.25,22.85c8.12,12.1,7.43,25.4,4.16,38.34c-3.27,12.92-11.41,23.11-21.09,32.42
			c-15.39,14.82-34.62,20.24-54.63,22.51c-15.45,1.76-28.15-5.67-28.36-25.15c-0.19-17.99,0.09-35.88,4.91-53.39
			c0.21-0.78,0.14-1.66,0.09-2.48c-0.03-0.44-0.29-0.88-0.44-1.31c-9.56,3.37-9.75,3.46-9.6,12.65
			c0.27,17.13-6.66,31.55-16.93,44.59c-6.33,8.04-12.93,15.99-23.44,19c-11.05,3.17-21.87,7.53-33.72,6.54
			c-6.46-0.54-12.33-2.58-16.75-7.57c-1.26-1.42-2.03-3.28-3.12-5.1c-7.6,5.41-14.97,11.17-22.85,16.13
			c-10.65,6.71-22.67,10.21-34.73,13.61c-11.64,3.28-23.44,4.23-35.42,3.95c-17.61-0.41-32.93-5.88-43.64-20.67
			c-5.7-7.87-9.6-16.47-9.46-26.61c0.24-17.49-0.8-35.04,0.34-52.46c2.61-40.11,16-76.05,43.66-106.09
			c10.71-11.64,22.17-22.31,36.73-28.7c15.56-6.83,32.03-9.36,48.96-6.49c9.59,1.62,19.41,2.91,28.5,6.12
			c13,4.59,21.39,15,28.74,26.37c5.11,7.91,6.35,16.62,6.55,25.52c0.05,2.31-2.37,5.95-4.51,6.79c-6.7,2.62-13.8,4.24-20.77,6.17
			c-3.1,0.86-5.24-0.32-6.02-3.5c-0.74-3.06-1.64-6.12-1.95-9.24c-1.71-17.13-15.52-34.18-32.17-38.86
			c-6.67-1.87-13.56-3.04-20.4-4.21c-7.78-1.34-14.3,0.9-20.41,6.28c-24.78,21.84-42.11,48.33-49.87,80.46
			c-6.61,27.35-6.43,55.34-5.68,83.32c0.62,23.2,18.91,38.98,43.09,40.07c14.62,0.66,25.54-5.96,36.2-14.47
			c14.06-11.23,25.89-24.3,33.16-40.86c4.88-11.1,8.72-22.65,12.98-34.02c1.9-5.08,3.27-10.42,5.69-15.24
			c1.24-2.47,3.95-4.77,6.54-5.87c5.31-2.25,10.91-3.93,16.52-5.27c4.23-1.01,8.56-1.04,11.13,3.84c0.43,0.81,2.15,1.34,3.27,1.33
			c12.1-0.08,23.2,2.61,32.81,10.52c1.11,0.92,4.37,0.24,6.04-0.73c3.69-2.15,7.06-4.87,10.46-7.49c7.36-5.67,16.41-6.5,24.94-8.8
			c1.3-0.35,3.3-0.14,4.28,0.67c4.44,3.6,8.91,2.09,13.41,0.5c11.93-4.22,23.51-2.61,34.8,2.23c3.21,1.37,5.59,1.61,8.52-0.81
			c17.04-14.03,34.31-27.99,47.13-46.09c9.11-12.86,16.68-26.87,24.1-40.82c2.74-5.16,5.41-9.1,11.21-10.54
			c4.96-1.23,9.77-3.22,14.79-3.94c2.65-0.38,5.95,0.7,8.2,2.24c0.86,0.59,0.18,4.61-0.83,6.53c-6.87,13.14-13.95,26.16-21.09,39.16
			c-6.29,11.46-9.35,23.96-12,36.59c-1.19,5.64-2.32,11.32-3,17.05c-2.02,16.94-3.96,33.9-5.64,50.87
			c-1.7,17.17,10,25.2,25.22,26.41c11.04,0.88,19.41-3.55,28.12-9.82c6.12-4.4,14.41-5.94,21.92-8.08c1.72-0.49,4.95,1.3,6.09,2.98
			c0.67,0.98-0.94,4.33-2.37,5.77c-10.91,10.98-24.72,16.7-39.27,20.85c-12.01,3.42-24.3,5.07-36.81,4.03
			c-13.54-1.12-25.49-5.68-31.95-18.56c-2.11-4.21-2.42-9.59-2.55-14.46c-0.46-17.66,1.26-35.14,5.05-52.43
			C439.77,390.99,440.23,386.4,441.16,380.35z M384.53,421.85c-12.85,3.13-25.25,6.09-37.59,9.29c-0.93,0.24-1.93,2.24-1.99,3.46
			c-0.47,9.11-0.82,18.22-0.97,27.34c-0.06,3.29,0.03,6.73,0.91,9.86c2.07,7.34,9.28,10.54,14.89,6.42
			c12.1-8.88,21.77-19.73,24.89-35.03C386.15,435.92,387.27,428.58,384.53,421.85z M274.67,431.72c-2.28,0.34-4.17,0.61-6.07,0.9
			c-4.89,0.76-9.76,1.85-14.68,2.24c-6.94,0.55-8.05,1.32-8.93,8.23c-0.23,1.81-0.64,3.62-0.63,5.42c0.06,8.46-0.41,17,0.58,25.36
			c0.73,6.13,6.65,7.65,10.69,3.15C266.96,464.44,275.21,450.43,274.67,431.72z M374.89,408.73c-9.47-9.77-14.39-9.22-17.32,0.84
			c-1.27,4.37,0.66,6.64,5,5.15C366.66,413.31,370.42,410.95,374.89,408.73z M262.85,409.85c-0.55,0.25-1.1,0.5-1.65,0.75
			c0,2.61-0.59,7.28,0.1,7.48c3.53,1.01,7.39,0.87,11.14,1.13c0.23-0.61,0.45-1.22,0.68-1.82
			C269.7,414.87,266.28,412.36,262.85,409.85z"/>
</svg>
