<?xml version="1.0" encoding="utf-8"?>
<!-- Generator: Adobe Illustrator 25.0.0, SVG Export Plug-In . SVG Version: 6.00 Build 0)  -->
<svg version="1.1" id="图层_1" xmlns="http://www.w3.org/2000/svg" xmlns:xlink="http://www.w3.org/1999/xlink" x="0px" y="0px"
	 viewBox="0 0 600 300" style="enable-background:new 0 0 600 300;" xml:space="preserve">
<style type="text/css">
	.st0{fill:#CCCCCC;}
</style>
<path id="circle" class="st0" d="M464.9,130.4c-12.8,9.6-24.2,18.3-36,27.2c10,14.4,9.1,30.2,5.1,45.6c-4,15.4-14,27.5-26,38.5
	c-18.9,17.6-42.6,24.1-67.3,26.8c-19,2.1-34.7-6.7-34.9-29.9c-0.2-21.4,0.1-42.7,6-63.5c0.3-0.9,0.2-2,0.1-2.9c0-0.5-0.4-1-0.5-1.6
	c-11.8,4-12,4.1-11.8,15c0.3,20.4-8.2,37.5-20.8,53c-7.8,9.6-15.9,19-28.9,22.6c-13.6,3.8-26.9,9-41.5,7.8c-8-0.6-15.2-3.1-20.6-9
	c-1.6-1.7-2.5-3.9-3.8-6.1c-9.4,6.4-18.4,13.3-28.1,19.2c-13.1,8-27.9,12.1-42.8,16.2c-14.3,3.9-28.9,5-43.6,4.7
	c-21.7-0.5-40.5-7-53.7-24.6c-7-9.4-11.8-19.6-11.6-31.6c0.3-20.8-1-41.7,0.4-62.4c3.2-47.7,19.7-90.4,53.8-126.1
	c13.2-13.8,27.3-26.5,45.2-34.1C122.7,7,142.9,4,163.8,7.4c11.8,1.9,23.9,3.5,35.1,7.3c16,5.5,26.3,17.8,35.4,31.4
	c6.3,9.4,7.8,19.8,8.1,30.3c0.1,2.7-2.9,7.1-5.6,8.1c-8.2,3.1-17,5-25.6,7.3c-3.8,1-6.5-0.4-7.4-4.2c-0.9-3.6-2-7.3-2.4-11
	c-2.1-20.4-19.1-40.6-39.6-46.2c-8.2-2.2-16.7-3.6-25.1-5c-9.6-1.6-17.6,1.1-25.1,7.5c-30.5,26-51.8,57.5-61.4,95.7
	c-8.1,32.5-7.9,65.8-7,99.1c0.8,27.6,23.3,46.3,53.1,47.6c18,0.8,31.4-7.1,44.6-17.2c17.3-13.4,31.9-28.9,40.8-48.6
	c6-13.2,10.7-26.9,16-40.4c2.3-6,4-12.4,7-18.1c1.5-2.9,4.9-5.7,8.1-7c6.5-2.7,13.4-4.7,20.3-6.3c5.2-1.2,10.5-1.2,13.7,4.6
	c0.5,1,2.6,1.6,4,1.6c14.9-0.1,28.6,3.1,40.4,12.5c1.4,1.1,5.4,0.3,7.4-0.9c4.5-2.6,8.7-5.8,12.9-8.9c9.1-6.7,20.2-7.7,30.7-10.5
	c1.6-0.4,4.1-0.2,5.3,0.8c5.5,4.3,11,2.5,16.5,0.6c14.7-5,28.9-3.1,42.8,2.7c4,1.6,6.9,1.9,10.5-1c21-16.7,42.2-33.3,58-54.8
	c11.2-15.3,20.5-31.9,29.7-48.5c3.4-6.1,6.7-10.8,13.8-12.5c6.1-1.5,12-3.8,18.2-4.7c3.3-0.5,7.3,0.8,10.1,2.7
	c1.1,0.7,0.2,5.5-1,7.8c-8.5,15.6-17.2,31.1-26,46.6c-7.7,13.6-11.5,28.5-14.8,43.5c-1.5,6.7-2.9,13.5-3.7,20.3
	c-2.5,20.1-4.9,40.3-6.9,60.5c-2.1,20.4,12.3,30,31.1,31.4c13.6,1,23.9-4.2,34.6-11.7c7.5-5.2,17.7-7.1,27-9.6
	c2.1-0.6,6.1,1.5,7.5,3.5c0.8,1.2-1.2,5.1-2.9,6.9c-13.4,13.1-30.4,19.9-48.4,24.8c-14.8,4.1-29.9,6-45.3,4.8
	c-16.7-1.3-31.4-6.8-39.3-22.1c-2.6-5-3-11.4-3.1-17.2c-0.6-21,1.6-41.8,6.2-62.3C463.2,143,463.8,137.6,464.9,130.4z M395.2,179.7
	c-15.8,3.7-31.1,7.2-46.3,11c-1.1,0.3-2.4,2.7-2.5,4.1c-0.6,10.8-1,21.7-1.2,32.5c-0.1,3.9,0,8,1.1,11.7c2.5,8.7,11.4,12.5,18.3,7.6
	c14.9-10.6,26.8-23.5,30.6-41.6C397.2,196.4,398.6,187.7,395.2,179.7z M259.9,191.4c-2.8,0.4-5.1,0.7-7.5,1.1
	c-6,0.9-12,2.2-18.1,2.7c-8.5,0.7-9.9,1.6-11,9.8c-0.3,2.2-0.8,4.3-0.8,6.4c0.1,10.1-0.5,20.2,0.7,30.2c0.9,7.3,8.2,9.1,13.2,3.7
	C250.4,230.3,260.6,213.7,259.9,191.4z M383.3,164.1c-11.7-11.6-17.7-11-21.3,1c-1.6,5.2,0.8,7.9,6.2,6.1
	C373.2,169.5,377.8,166.7,383.3,164.1z M245.4,165.4c-0.7,0.3-1.4,0.6-2,0.9c0,3.1-0.7,8.7,0.1,8.9c4.3,1.2,9.1,1,13.7,1.3
	c0.3-0.7,0.6-1.5,0.8-2.2C253.8,171.4,249.6,168.4,245.4,165.4z"/>
</svg>
